<svg width="800" height="600" viewBox="0 0 800 600" fill="none" xmlns="http://www.w3.org/2000/svg">
  <defs>
    <linearGradient id="esportsGradient" x1="0%" y1="0%" x2="100%" y2="100%">
      <stop offset="0%" style="stop-color:#dc2626;stop-opacity:1" />
      <stop offset="100%" style="stop-color:#ef4444;stop-opacity:1" />
    </linearGradient>
  </defs>
  <rect width="800" height="600" fill="url(#esportsGradient)"/>
  <rect x="50" y="50" width="700" height="500" fill="#1f2937" rx="20"/>
  <rect x="100" y="100" width="600" height="400" fill="#374151" rx="15"/>
  <g transform="translate(400, 300)">
    <rect x="-100" y="-40" width="200" height="80" fill="#dc2626" rx="15"/>
    <circle cx="-60" cy="-10" r="12" fill="#fbbf24"/>
    <circle cx="-20" cy="-10" r="12" fill="#fbbf24"/>
    <circle cx="20" cy="-10" r="12" fill="#fbbf24"/>
    <circle cx="60" cy="-10" r="12" fill="#fbbf24"/>
    <rect x="-80" y="10" width="40" height="15" fill="#374151" rx="7"/>
    <rect x="-20" y="10" width="40" height="15" fill="#374151" rx="7"/>
    <rect x="40" y="10" width="40" height="15" fill="#374151" rx="7"/>
    <circle cx="-120" cy="0" r="20" fill="#6b7280"/>
    <circle cx="120" cy="0" r="20" fill="#6b7280"/>
    <path d="M-130,-10 L-110,-10 M-130,0 L-110,0 M-130,10 L-110,10" stroke="#374151" stroke-width="2"/>
    <path d="M110,-10 L130,-10 M110,0 L130,0 M110,10 L130,10" stroke="#374151" stroke-width="2"/>
  </g>
  <g transform="translate(300, 180)">
    <polygon points="0,-20 15,10 -15,10" fill="#fbbf24"/>
    <circle cx="0" cy="-5" r="3" fill="#dc2626"/>
  </g>
  <g transform="translate(500, 180)">
    <polygon points="0,-20 15,10 -15,10" fill="#fbbf24"/>
    <circle cx="0" cy="-5" r="3" fill="#dc2626"/>
  </g>
  <text x="400" y="480" text-anchor="middle" fill="#fbbf24" font-family="Arial, sans-serif" font-size="32" font-weight="bold">ESPORTS</text>
  <text x="400" y="520" text-anchor="middle" fill="#9ca3af" font-family="Arial, sans-serif" font-size="18">COMPETITIVE GAMING</text>
</svg>