<svg width="800" height="600" viewBox="0 0 800 600" fill="none" xmlns="http://www.w3.org/2000/svg">
  <defs>
    <linearGradient id="featuresGradient" x1="0%" y1="0%" x2="100%" y2="100%">
      <stop offset="0%" style="stop-color:#8b5cf6;stop-opacity:1" />
      <stop offset="100%" style="stop-color:#a78bfa;stop-opacity:1" />
    </linearGradient>
  </defs>
  <rect width="800" height="600" fill="url(#featuresGradient)"/>
  <rect x="50" y="50" width="700" height="500" fill="#1f2937" rx="20"/>
  <rect x="100" y="100" width="600" height="400" fill="#374151" rx="15"/>
  <g transform="translate(400, 300)">
    <rect x="-120" y="-80" width="240" height="160" fill="#8b5cf6" rx="20"/>
    <rect x="-100" y="-60" width="200" height="120" fill="#7c3aed" rx="15"/>
    <rect x="-80" y="-40" width="160" height="80" fill="#6d28d9" rx="10"/>
    <circle cx="-40" cy="-20" r="8" fill="#a78bfa"/>
    <circle cx="0" cy="-20" r="8" fill="#a78bfa"/>
    <circle cx="40" cy="-20" r="8" fill="#a78bfa"/>
    <rect x="-60" y="0" width="120" height="20" fill="#a78bfa" rx="10"/>
    <rect x="-40" y="25" width="80" height="15" fill="#c4b5fd" rx="7"/>
  </g>
  <g transform="translate(250, 180)">
    <circle cx="0" cy="0" r="25" fill="#fbbf24"/>
    <path d="M-10,-5 L-5,5 L10,-10" stroke="white" stroke-width="3" fill="none" stroke-linecap="round" stroke-linejoin="round"/>
  </g>
  <g transform="translate(550, 180)">
    <circle cx="0" cy="0" r="25" fill="#fbbf24"/>
    <path d="M-10,-5 L-5,5 L10,-10" stroke="white" stroke-width="3" fill="none" stroke-linecap="round" stroke-linejoin="round"/>
  </g>
  <g transform="translate(250, 420)">
    <circle cx="0" cy="0" r="25" fill="#fbbf24"/>
    <path d="M-10,-5 L-5,5 L10,-10" stroke="white" stroke-width="3" fill="none" stroke-linecap="round" stroke-linejoin="round"/>
  </g>
  <g transform="translate(550, 420)">
    <circle cx="0" cy="0" r="25" fill="#fbbf24"/>
    <path d="M-10,-5 L-5,5 L10,-10" stroke="white" stroke-width="3" fill="none" stroke-linecap="round" stroke-linejoin="round"/>
  </g>
  <text x="400" y="520" text-anchor="middle" fill="#9ca3af" font-family="Arial, sans-serif" font-size="24" font-weight="bold">GAME FEATURES</text>
</svg>