<svg width="800" height="600" viewBox="0 0 800 600" fill="none" xmlns="http://www.w3.org/2000/svg">
  <defs>
    <linearGradient id="techGradient" x1="0%" y1="0%" x2="100%" y2="100%">
      <stop offset="0%" style="stop-color:#059669;stop-opacity:1" />
      <stop offset="100%" style="stop-color:#10b981;stop-opacity:1" />
    </linearGradient>
  </defs>
  <rect width="800" height="600" fill="url(#techGradient)"/>
  <rect x="50" y="50" width="700" height="500" fill="#1f2937" rx="20"/>
  <rect x="100" y="100" width="600" height="400" fill="#374151" rx="15"/>
  <rect x="150" y="150" width="500" height="300" fill="#4b5563" rx="10"/>
  <g transform="translate(400, 300)">
    <rect x="-80" y="-60" width="160" height="120" fill="#059669" rx="10"/>
    <rect x="-60" y="-40" width="120" height="80" fill="#065f46" rx="5"/>
    <circle cx="-40" cy="-20" r="8" fill="#10b981"/>
    <circle cx="0" cy="-20" r="8" fill="#10b981"/>
    <circle cx="40" cy="-20" r="8" fill="#10b981"/>
    <circle cx="-40" cy="20" r="8" fill="#10b981"/>
    <circle cx="0" cy="20" r="8" fill="#10b981"/>
    <circle cx="40" cy="20" r="8" fill="#10b981"/>
    <rect x="-20" y="-10" width="40" height="20" fill="#34d399" rx="3"/>
    <path d="M-70,-30 L-50,-30 M-70,-10 L-50,-10 M-70,10 L-50,10 M-70,30 L-50,30" stroke="#34d399" stroke-width="2"/>
    <path d="M50,-30 L70,-30 M50,-10 L70,-10 M50,10 L70,10 M50,30 L70,30" stroke="#34d399" stroke-width="2"/>
  </g>
  <rect x="200" y="480" width="80" height="20" fill="#10b981" rx="10"/>
  <rect x="320" y="480" width="80" height="20" fill="#10b981" rx="10"/>
  <rect x="440" y="480" width="80" height="20" fill="#10b981" rx="10"/>
  <text x="400" y="540" text-anchor="middle" fill="#9ca3af" font-family="Arial, sans-serif" font-size="24" font-weight="bold">GAMING TECH</text>
</svg>