<svg width="800" height="600" viewBox="0 0 800 600" fill="none" xmlns="http://www.w3.org/2000/svg">
  <defs>
    <linearGradient id="releasesGradient" x1="0%" y1="0%" x2="100%" y2="100%">
      <stop offset="0%" style="stop-color:#f59e0b;stop-opacity:1" />
      <stop offset="100%" style="stop-color:#fbbf24;stop-opacity:1" />
    </linearGradient>
  </defs>
  <rect width="800" height="600" fill="url(#releasesGradient)"/>
  <rect x="50" y="50" width="700" height="500" fill="#1f2937" rx="20"/>
  <rect x="100" y="100" width="600" height="400" fill="#374151" rx="15"/>
  <g transform="translate(400, 300)">
    <rect x="-80" y="-80" width="160" height="160" fill="#f59e0b" rx="20"/>
    <rect x="-60" y="-60" width="120" height="120" fill="#d97706" rx="15"/>
    <circle cx="0" cy="0" r="40" fill="#fbbf24"/>
    <polygon points="-15,-10 -15,10 15,0" fill="white"/>
    <rect x="-100" y="-100" width="20" height="200" fill="#6b7280" rx="10"/>
    <rect x="80" y="-100" width="20" height="200" fill="#6b7280" rx="10"/>
    <rect x="-100" y="-100" width="200" height="20" fill="#6b7280" rx="10"/>
    <rect x="-100" y="80" width="200" height="20" fill="#6b7280" rx="10"/>
  </g>
  <g transform="translate(200, 450)">
    <rect x="-15" y="-15" width="30" height="30" fill="#fbbf24" rx="5"/>
    <circle cx="0" cy="0" r="8" fill="#f59e0b"/>
  </g>
  <g transform="translate(300, 450)">
    <rect x="-15" y="-15" width="30" height="30" fill="#fbbf24" rx="5"/>
    <circle cx="0" cy="0" r="8" fill="#f59e0b"/>
  </g>
  <g transform="translate(500, 450)">
    <rect x="-15" y="-15" width="30" height="30" fill="#fbbf24" rx="5"/>
    <circle cx="0" cy="0" r="8" fill="#f59e0b"/>
  </g>
  <g transform="translate(600, 450)">
    <rect x="-15" y="-15" width="30" height="30" fill="#fbbf24" rx="5"/>
    <circle cx="0" cy="0" r="8" fill="#f59e0b"/>
  </g>
  <text x="400" y="520" text-anchor="middle" fill="#9ca3af" font-family="Arial, sans-serif" font-size="24" font-weight="bold">NEW RELEASES</text>
</svg>